<?xml version="1.0" standalone="no"?>
<!DOCTYPE svg PUBLIC "-//W3C//DTD SVG 20010904//EN"
 "http://www.w3.org/TR/2001/REC-SVG-20010904/DTD/svg10.dtd">
<svg version="1.0" xmlns="http://www.w3.org/2000/svg"
 width="235.000000pt" height="135.000000pt" viewBox="0 0 235.000000 135.000000"
 preserveAspectRatio="xMidYMid meet">

<g transform="translate(0.000000,135.000000) scale(0.100000,-0.100000)"
fill="#000000" stroke="none">
<path d="M0 675 l0 -675 1175 0 1175 0 0 675 0 675 -1175 0 -1175 0 0 -675z
m1297 553 c-3 -7 -5 -2 -5 12 0 14 2 19 5 13 2 -7 2 -19 0 -25z m120 -10 c-3
-8 -6 -5 -6 6 -1 11 2 17 5 13 3 -3 4 -12 1 -19z m291 -185 c-296 -2 -780 -2
-1076 0 -295 1 -53 2 538 2 591 0 833 -1 538 -2z m-1144 -178 c14 -13 26 -33
26 -44 0 -11 3 -26 6 -35 5 -13 -1 -16 -27 -16 -33 0 -34 1 -34 42 0 39 -2 43
-25 43 l-25 0 -3 -164 c-3 -174 3 -200 39 -180 16 8 19 21 19 82 -1 54 -3 68
-11 55 -15 -27 -29 -21 -29 12 0 29 2 30 45 30 l45 0 0 -80 c0 -73 -3 -83 -25
-105 -15 -16 -36 -25 -55 -25 -19 0 -40 9 -55 25 -27 26 -30 55 -25 245 2 95
5 107 38 125 39 21 66 18 96 -10z m388 -5 c28 -29 30 -35 26 -91 -3 -36 -11
-66 -20 -76 -15 -14 -15 -18 3 -47 31 -51 22 -121 -20 -153 -9 -7 -43 -13 -76
-13 l-60 0 5 107 c3 60 3 152 0 206 l-5 97 58 0 c52 0 62 -3 89 -30z m403 -20
c25 -28 30 -92 11 -131 -12 -25 -13 -35 -4 -46 6 -8 15 -47 19 -86 4 -49 6
-14 5 106 l-1 177 58 0 c32 0 67 -4 77 -10 29 -16 45 -75 31 -121 -7 -22 -16
-39 -21 -39 -4 0 1 -17 12 -38 16 -29 19 -46 14 -75 -11 -59 -35 -77 -106 -77
-60 0 -70 -6 -48 -28 22 -22 -26 -14 -50 8 -18 17 -22 32 -22 88 0 74 -15 106
-46 100 -17 -3 -19 -12 -19 -86 l0 -82 -30 0 -30 0 0 177 0 178 50 5 c62 6 79
3 100 -20z m-596 -4 c21 -22 22 -33 22 -156 1 -124 -1 -134 -22 -157 -19 -19
-32 -23 -63 -21 -54 4 -75 35 -76 113 -4 170 -1 195 25 220 32 33 83 34 114 1z
m365 11 c-2 -7 3 -46 12 -87 9 -41 18 -91 20 -110 3 -19 11 -61 18 -92 l13
-58 -27 0 c-25 0 -29 4 -36 48 -8 43 -12 47 -40 50 -34 3 -44 -13 -44 -70 0
-25 -4 -28 -31 -28 -28 0 -31 3 -25 23 3 12 13 58 20 102 8 44 19 100 25 125
6 25 11 60 11 78 0 31 1 32 45 32 32 0 43 -4 39 -13z m616 -37 c0 -36 -4 -50
-14 -50 -18 0 -33 20 -38 50 -2 20 -9 25 -33 25 l-30 0 -3 -72 c-3 -74 7 -92
28 -52 18 32 32 17 34 -34 1 -51 -15 -63 -35 -26 -18 35 -30 7 -27 -62 3 -64
3 -64 33 -64 24 0 31 5 33 25 5 30 20 50 38 50 11 0 14 -13 13 -50 l-2 -50
-84 0 -83 0 0 83 c-1 45 -2 126 -3 180 l-2 97 88 0 87 0 0 -50z m160 32 c32
-26 39 -99 12 -132 -19 -23 -19 -25 -1 -54 13 -22 19 -50 19 -95 0 -46 5 -70
17 -83 15 -17 15 -18 -5 -18 -43 0 -62 34 -62 108 0 74 -15 106 -46 100 -17
-3 -19 -12 -19 -86 l0 -82 -30 0 -30 0 0 180 0 180 61 0 c44 0 68 -5 84 -18z
m-1606 -160 c8 -13 -10 -35 -24 -30 -21 7 -21 38 0 38 10 0 21 -4 24 -8z
m1791 -12 c0 -8 -8 -16 -17 -18 -13 -2 -18 3 -18 18 0 15 5 20 18 18 9 -2 17
-10 17 -18z m155 -370 c0 -7 -363 -9 -1072 -8 l-1073 3 1070 5 c589 3 1071 6
1073 8 1 1 2 -2 2 -8z m-1187 -200 c-3 -11 -7 -20 -9 -20 -2 0 -4 9 -4 20 0
11 4 20 9 20 5 0 7 -9 4 -20z m652 -18 c-3 -3 -11 0 -18 7 -9 10 -8 11 6 5 10
-3 15 -9 12 -12z m-698 -24 c-3 -7 -5 -2 -5 12 0 14 2 19 5 13 2 -7 2 -19 0
-25z"/>
<path d="M867 843 c-7 -7 -10 -153 -3 -153 2 0 11 -3 19 -6 27 -10 47 24 47
81 0 29 -3 60 -6 69 -6 16 -45 22 -57 9z"/>
<path d="M952 780 c0 -14 2 -19 5 -12 2 6 2 18 0 25 -3 6 -5 1 -5 -13z"/>
<path d="M867 653 c-9 -8 -9 -126 -1 -147 8 -20 28 -20 48 0 18 18 22 104 6
135 -10 19 -40 26 -53 12z"/>
<path d="M1264 816 c-3 -7 -4 -40 -2 -72 3 -64 21 -80 52 -49 19 20 22 105 4
123 -16 16 -47 15 -54 -2z"/>
<path d="M1444 817 c-3 -8 -4 -41 -2 -73 3 -55 5 -59 28 -59 21 0 27 7 34 37
13 51 -3 102 -32 106 -12 2 -24 -3 -28 -11z"/>
<path d="M1352 760 c0 -19 2 -27 5 -17 2 9 2 25 0 35 -3 9 -5 1 -5 -18z"/>
<path d="M1233 670 c0 -30 2 -43 4 -27 2 15 2 39 0 55 -2 15 -4 2 -4 -28z"/>
<path d="M1444 647 c-3 -8 -4 -41 -2 -73 3 -55 5 -59 28 -59 21 0 27 7 34 37
13 51 -3 102 -32 106 -12 2 -24 -3 -28 -11z"/>
<path d="M1353 570 c0 -30 2 -43 4 -27 2 15 2 39 0 55 -2 15 -4 2 -4 -28z"/>
<path d="M682 817 c-15 -18 -15 -276 0 -294 16 -20 36 -16 44 9 8 25 7 276 -2
289 -8 13 -30 11 -42 -4z"/>
<path d="M753 645 c0 -22 2 -30 4 -17 2 12 2 30 0 40 -3 9 -5 -1 -4 -23z"/>
<path d="M642 635 c0 -16 2 -22 5 -12 2 9 2 23 0 30 -3 6 -5 -1 -5 -18z"/>
<path d="M1076 715 c-4 -22 -10 -52 -12 -67 -5 -25 -3 -28 20 -28 26 0 36 22
16 35 -5 3 -7 11 -5 18 2 7 1 28 -4 47 l-8 35 -7 -40z"/>
<path d="M1111 724 c0 -11 3 -14 6 -6 3 7 2 16 -1 19 -3 4 -6 -2 -5 -13z"/>
<path d="M1042 695 c0 -16 2 -22 5 -12 2 9 2 23 0 30 -3 6 -5 -1 -5 -18z"/>
<path d="M1122 670 c0 -14 2 -19 5 -12 2 6 2 18 0 25 -3 6 -5 1 -5 -13z"/>
<path d="M1031 644 c0 -11 3 -14 6 -6 3 7 2 16 -1 19 -3 4 -6 -2 -5 -13z"/>
<path d="M1131 624 c0 -11 3 -14 6 -6 3 7 2 16 -1 19 -3 4 -6 -2 -5 -13z"/>
<path d="M1594 655 c0 -49 1 -71 3 -48 2 23 2 64 0 90 -2 26 -3 8 -3 -42z"/>
<path d="M1814 816 c-3 -7 -4 -40 -2 -72 3 -64 21 -80 52 -49 18 19 22 86 6
116 -12 22 -48 26 -56 5z"/>
<path d="M1902 760 c0 -14 2 -19 5 -12 2 6 2 18 0 25 -3 6 -5 1 -5 -13z"/>
<path d="M1783 670 c0 -36 2 -50 4 -32 2 17 2 47 0 65 -2 17 -4 3 -4 -33z"/>
<path d="M1903 560 c0 -30 2 -43 4 -27 2 15 2 39 0 55 -2 15 -4 2 -4 -28z"/>
</g>
</svg>
