<?xml version="1.0" encoding="UTF-8"?>
<svg width="236px" height="226px" viewBox="0 0 236 226" version="1.1" xmlns="http://www.w3.org/2000/svg" xmlns:xlink="http://www.w3.org/1999/xlink">
    <title>F478BC7A-F051-49A4-993D-8E5D98C6624B</title>
    <g id="Desktop" stroke="none" stroke-width="1" fill="none" fill-rule="evenodd">
        <g id="10.02_Sobre" transform="translate(-842.000000, -255.000000)">
            <g id="Conteúdo" transform="translate(250.000000, 138.000000)">
                <g id="img_logo_iot_reduzido_sobre" transform="translate(592.000000, 117.000000)">
                    <g id="Group-2">
                        <polygon id="Fill-1" fill="#192C70" points="185.068823 103 164.300995 123.612601 143.533167 103 93 103 109.583748 126.780289 149.628524 126.780289 149.628524 225 176.712272 225 176.712272 126.780289 218.416252 126.780289 235 103"></polygon>
                        <path d="M186,80.4546492 C174.477906,69.1817836 155.522094,69.1817836 144,80.4546492 L165.000417,101 L186,80.4546492 Z" id="Fill-4" fill="#009B77"></path>
                        <path d="M163.812196,57.5494595 C176.031706,57.5494595 187.687804,62.2198649 196.335771,71 L211,56.4289192 C198.404065,43.9114861 181.672359,37 164,37 C146.328457,37 129.408131,43.9114861 117,56.4289192 L131.664229,71 C139.936588,62.2198649 151.591869,57.5494595 163.812196,57.5494595" id="Fill-6" fill="#009B77" opacity="0.6"></path>
                        <path d="M163.000414,21.3502181 C184.91991,21.3502181 205.504102,30.0847048 221.133685,45.8069494 L236,30.6672287 C216.368649,10.8690027 190.636959,0 163.000414,0 C135.363041,0 109.632179,10.8690027 90,30.8611223 L104.867143,46 C120.305495,30.0847048 141.080918,21.3502181 163.000414,21.3502181" id="Fill-8" fill="#009B77" opacity="0.35"></path>
                        <polygon id="Fill-12" fill="#192C70" points="0 225 28 225 28 103 0 103"></polygon>
                        <path d="M64.5556008,182 C64.5556008,188.32739 66.3449078,193.447483 69.9227082,197.356982 C73.5005086,201.268954 78.5258657,203.22288 84.9995932,203.22288 C91.4741343,203.22288 96.5003051,201.268954 100.078106,197.356982 C103.655906,193.447483 105.444399,188.32739 105.444399,182 C105.444399,175.674258 103.655906,170.55499 100.078106,166.643018 C96.5003051,162.733518 91.4741343,160.776296 84.9995932,160.776296 C78.5258657,160.776296 73.5005086,162.733518 69.9227082,166.643018 C66.3449078,170.55499 64.5556008,175.674258 64.5556008,182 M39,182 C39,175.329787 40.1928714,169.290006 42.5778004,163.882304 C44.9635431,158.476251 48.2272587,153.847318 52.3746429,149.992209 C56.5195861,146.139571 61.4033609,143.176955 67.0259674,141.106008 C72.6485738,139.035061 78.638155,138 84.9995932,138 C91.3594039,138 97.3522399,139.035061 102.974033,141.106008 C108.596639,143.176955 113.478787,146.139571 117.626171,149.992209 C121.7703,153.847318 125.037271,158.476251 127.4222,163.882304 C129.807129,169.290006 131,175.329787 131,182 C131,188.672685 129.807129,194.711642 127.4222,200.116871 C125.037271,205.525397 121.7703,210.15433 117.626171,214.007791 C113.478787,217.862901 108.596639,220.822221 102.974033,222.893168 C97.3522399,224.964114 91.3594039,226 84.9995932,226 C78.638155,226 72.6485738,224.964114 67.0259674,222.893168 C61.4033609,220.822221 56.5195861,217.862901 52.3746429,214.007791 C48.2272587,210.15433 44.9635431,205.525397 42.5778004,200.116871 C40.1928714,194.711642 39,188.672685 39,182" id="Fill-14" fill="#192C70"></path>
                    </g>
                </g>
            </g>
        </g>
    </g>
</svg>